<?xml version="1.0" encoding="UTF-8"?>
<svg version="1.1" xmlns="http://www.w3.org/2000/svg" width="153" height="153">
<path d="M0 0 C0.73569214 -0.0049649 1.47138428 -0.00992981 2.22937012 -0.01504517 C4.65398103 -0.02960265 7.07852646 -0.03645902 9.50317383 -0.04199219 C10.33561426 -0.04481956 11.1680547 -0.04764694 12.0257206 -0.05056 C16.43332866 -0.06552898 20.8409042 -0.07477213 25.24853516 -0.07910156 C29.77975307 -0.08457429 34.3106687 -0.10858345 38.84179211 -0.13707352 C42.34474019 -0.15579089 45.84761688 -0.16091037 49.35061073 -0.16243744 C51.0198055 -0.16544538 52.68899957 -0.17341035 54.35814476 -0.18662262 C66.01515905 -0.2722886 77.52353895 -0.31008223 86.52270508 8.16113281 C91.6731939 14.56444324 92.82338823 21.20225778 92.81323242 29.24853516 C92.81994965 30.02513992 92.82666687 30.80174469 92.83358765 31.60188293 C92.85247062 34.15034513 92.85648674 36.69854266 92.85864258 39.24707031 C92.86507669 41.03154607 92.87180551 42.81602079 92.8788147 44.60049438 C92.8907628 48.33427373 92.89449801 52.06796071 92.89331055 55.80175781 C92.89310737 60.56854098 92.92041899 65.33472789 92.95485497 70.10136986 C92.97717217 73.78529543 92.98114663 77.4690785 92.98009109 81.15306473 C92.98243943 82.90961386 92.99121936 84.66616739 93.00675583 86.42264938 C93.16107065 105.66833148 93.16107065 105.66833148 86.14770508 113.97363281 C75.48676597 122.85774874 64.74042193 122.46498856 51.55395508 122.42675781 C49.90685977 122.42810768 48.25976485 122.43005089 46.6126709 122.43255615 C43.17330097 122.43549228 39.73403545 122.43125868 36.29467773 122.421875 C31.90701229 122.41048137 27.51959161 122.41704898 23.13193512 122.42901993 C19.73453967 122.43627951 16.33720134 122.43393186 12.93980408 122.42876434 C11.3228299 122.42743916 9.70585037 122.42903547 8.08888245 122.43372345 C-14.32164263 122.48445308 -14.32164263 122.48445308 -23.47729492 114.16113281 C-30.82593628 106.81249146 -30.86670472 97.39834746 -30.89413452 87.65809631 C-30.88876354 86.03540786 -30.88261028 84.41272183 -30.87573242 82.79003906 C-30.87775723 81.1004982 -30.88067205 79.41095819 -30.88442993 77.72142029 C-30.88883534 74.19204329 -30.88248086 70.66289516 -30.8684082 67.13354492 C-30.85133051 62.63377656 -30.86115977 58.13454571 -30.8791256 53.6347971 C-30.89002313 50.14898205 -30.88648965 46.66329211 -30.87874222 43.17747307 C-30.87675598 41.51945874 -30.87914338 39.86143266 -30.88618088 38.20343208 C-30.95817703 16.47583838 -30.95817703 16.47583838 -24.12963867 7.69628906 C-17.33940607 1.38763325 -8.90187363 0.01449912 0 0 Z " fill="#0C0C0C" transform="translate(45.477294921875,14.8388671875)"/>
<path d="M0 0 C3.5386994 1.65139305 4.81070153 2.71605229 7 6 C7.30078125 8.9609375 7.30078125 8.9609375 7.3125 12.375 C7.32925781 13.49648437 7.34601563 14.61796875 7.36328125 15.7734375 C6.9623153 19.334705 6.14434818 21.15760874 4 24 C-0.00633751 26.67089167 -3.28991428 26.70693873 -8 26 C-11.03215675 23.80168636 -11.81654398 22.55036806 -13 19 C-13.17066284 16.87930439 -13.2662598 14.75204902 -13.3125 12.625 C-13.34988281 11.50351563 -13.38726562 10.38203125 -13.42578125 9.2265625 C-12.91371636 5.34614414 -11.70908823 3.76437575 -9 1 C-5.93570224 -0.53214888 -3.3834358 -0.22938548 0 0 Z " fill="#DE2327" transform="translate(85,63)"/>
<path d="M0 0 C2.71274001 0.85257543 3.8423836 1.82549613 5.75 3.9375 C8.11322139 9.7273924 7.83101897 15.74437708 5.6875 21.5625 C4 24 4 24 1 26 C-5.95172414 26.55172414 -5.95172414 26.55172414 -9.375 24.75 C-13.34889993 20.47041546 -13.42200673 16.33331092 -13.32421875 10.69921875 C-12.87385154 6.94977611 -11.49880251 4.78437994 -9 2 C-5.51195905 -0.32536063 -4.09859246 -0.33457898 0 0 Z " fill="#D72226" transform="translate(122,63)"/>
<path d="M0 0 C1.98 0 3.96 0 6 0 C6 8.58 6 17.16 6 26 C4.35 26 2.7 26 1 26 C0.67 21.38 0.34 16.76 0 12 C-0.99 14.97 -1.98 17.94 -3 21 C-4.65 21 -6.3 21 -8 21 C-8.66 18.69 -9.32 16.38 -10 14 C-10.33 17.63 -10.66 21.26 -11 25 C-12.65 25.33 -14.3 25.66 -16 26 C-16 17.75 -16 9.5 -16 1 C-14.02 1 -12.04 1 -10 1 C-8.35 4.3 -6.7 7.6 -5 11 C-4.360625 9.370625 -3.72125 7.74125 -3.0625 6.0625 C-1.125 1.125 -1.125 1.125 0 0 Z " fill="#047850" transform="translate(42,63)"/>
<path d="M0 0 C12.45459235 -0.36993839 12.45459235 -0.36993839 14.90625 1.29296875 C16.68788649 4.07359427 16.17206466 6.78812636 16 10 C16 10.99 16 11.98 16 13 C16.33 13.33 16.66 13.66 17 14 C17.44717227 17.95002173 17.60773798 20.15350782 15.25 23.4375 C12 25 12 25 0 25 C0 16.75 0 8.5 0 0 Z " fill="#F1F1F1" transform="translate(52,64)"/>
<path d="M0 0 C1.98 0 3.96 0 6 0 C6 6.6 6 13.2 6 20 C8.64 20 11.28 20 14 20 C13.67 21.65 13.34 23.3 13 25 C11.02090602 25.02686553 9.04171029 25.04633375 7.0625 25.0625 C5.96035156 25.07410156 4.85820313 25.08570312 3.72265625 25.09765625 C1 25 1 25 0 24 C-0.08726223 22.21928754 -0.10699041 20.4351686 -0.09765625 18.65234375 C-0.09443359 17.57275391 -0.09121094 16.49316406 -0.08789062 15.38085938 C-0.07951172 14.24455078 -0.07113281 13.10824219 -0.0625 11.9375 C-0.05798828 10.79732422 -0.05347656 9.65714844 -0.04882812 8.48242188 C-0.03699747 5.65489649 -0.0205141 2.8274736 0 0 Z " fill="#0A6490" transform="translate(95,64)"/>
<path d="M0 0 C6.81059063 -0.3095723 6.81059063 -0.3095723 10 2 C13.6050745 5.99133249 13.43793656 10.21374172 13.29296875 15.3359375 C12.91491457 18.7737102 11.96576559 21.16056082 10 24 C6.5647952 26.29013653 5.014669 26.17842973 1 26 C1.66 25.34 2.32 24.68 3 24 C2.67 23.34 2.34 22.68 2 22 C2.639375 21.71125 3.27875 21.4225 3.9375 21.125 C6.15206079 20.17176549 6.15206079 20.17176549 7 18 C7.09585131 16.35643193 7.12983511 14.70885358 7.125 13.0625 C7.12886719 11.74958984 7.12886719 11.74958984 7.1328125 10.41015625 C7.09822003 7.85540944 7.09822003 7.85540944 6 5 C4.02 5.33 2.04 5.66 0 6 C0 5.01 0 4.02 0 3 C1.32 3 2.64 3 4 3 C4 2.34 4 1.68 4 1 C2.68 0.67 1.36 0.34 0 0 Z " fill="#DD2327" transform="translate(116,63)"/>
<path d="M0 0 C3 -0.375 3 -0.375 6 0 C8.13749925 3.20624887 8.29574999 4.22458103 8.3125 7.9375 C8.33763672 9.21947266 8.33763672 9.21947266 8.36328125 10.52734375 C7.93504169 13.4421356 6.92290461 14.81326679 5 17 C2.625 16.6875 2.625 16.6875 0 16 C-2.15942819 12.76085771 -2.27232978 11.75140267 -2.25 8 C-2.25515625 7.13375 -2.2603125 6.2675 -2.265625 5.375 C-2 3 -2 3 0 0 Z " fill="#130B0B" transform="translate(79,68)"/>
<path d="M0 0 C1.2375 0.1546875 1.2375 0.1546875 2.5 0.3125 C4.63749925 3.51874887 4.79574999 4.53708103 4.8125 8.25 C4.83763672 9.53197266 4.83763672 9.53197266 4.86328125 10.83984375 C4.43504169 13.7546356 3.42290461 15.12576679 1.5 17.3125 C-1.36724686 16.73905063 -2.3614515 16.4510485 -4.5 14.3125 C-4.765625 11.5625 -4.765625 11.5625 -4.75 8.3125 C-4.75515625 7.24 -4.7603125 6.1675 -4.765625 5.0625 C-4.41488686 1.43132871 -3.65009158 0.45626145 0 0 Z " fill="#160C0C" transform="translate(119.5,67.6875)"/>
<path d="M0 0 C2.375 0.0625 2.375 0.0625 5 1 C9 5.32432432 9 5.32432432 9 7 C4.38 7 -0.24 7 -5 7 C-2 2 -2 2 0 0 Z " fill="#D52327" transform="translate(80,54)"/>
<path d="M0 0 C1.98 0 3.96 0 6 0 C6.625 2.375 6.625 2.375 7 5 C5 7 5 7 2.375 7.125 C1.59125 7.08375 0.8075 7.0425 0 7 C0 4.69 0 2.38 0 0 Z " fill="#2C2C2C" transform="translate(57,78)"/>
<path d="M0 0 C1.65 0 3.3 0 5 0 C5.38218767 1.65614657 5.71395102 3.32457024 6 5 C5 6 5 6 2.4375 6.0625 C1.2309375 6.0315625 1.2309375 6.0315625 0 6 C0 4.02 0 2.04 0 0 Z " fill="#181818" transform="translate(57,68)"/>
<path d="M0 0 C0 0.66 0 1.32 0 2 C-4.95 2.66 -9.9 3.32 -15 4 C-15 3.01 -15 2.02 -15 1 C-9.94997778 -0.03590199 -5.12583611 -0.10251672 0 0 Z " fill="#1F0C0C" transform="translate(90,60)"/>
<path d="M0 0 C0.66 0.33 1.32 0.66 2 1 C1.01 2.485 1.01 2.485 0 4 C0.33 4.66 0.66 5.32 1 6 C-1.475 7.485 -1.475 7.485 -4 9 C-3.46930939 5.17902761 -2.50298434 2.93828597 0 0 Z " fill="#D02427" transform="translate(76,64)"/>
</svg>
